Coordinates
version=1
nRows=11
nColumns=40
inDegrees=yes

Units are S.I. units (second, meters, Newtons, ...)
Angles are in degrees.

endheader
time	pelvis_tilt	pelvis_list	pelvis_rotation	pelvis_tx	pelvis_ty	pelvis_tz	hip_flexion_r	hip_adduction_r	hip_rotation_r	knee_angle_r	knee_angle_r_beta	ankle_angle_r	subtalar_angle_r	mtp_angle_r	hip_flexion_l	hip_adduction_l	hip_rotation_l	knee_angle_l	knee_angle_l_beta	ankle_angle_l	subtalar_angle_l	mtp_angle_l	lumbar_extension	lumbar_bending	lumbar_rotation	arm_flex_r	arm_add_r	arm_rot_r	elbow_flex_r	pro_sup_r	wrist_flex_r	wrist_dev_r	arm_flex_l	arm_add_l	arm_rot_l	elbow_flex_l	pro_sup_l	wrist_flex_l	wrist_dev_l
      3.12000000	      3.31210385	     -1.90119869	     -0.82915881	      0.88875627	      0.89394922	      1.40230820	     23.42430791	     -1.46889614	    -21.17397903	    -20.72852209	     -0.36178096	     -1.93107637	      3.22176183	     -0.85150289	     -9.71706553	     -1.63849775	     13.54017704	    -13.01798472	     -0.22720670	     14.72553848	     -4.53448640	     -6.11991285	    -10.64510946	      4.69350181	     -1.70194182	      5.89019743	     -8.58959506	     13.81943959	     12.35108962	     89.95437384	      0.00000000	      0.00000000	     18.28174175	     11.49916258	    -15.49237387	     31.49343964	     89.95437384	      0.00000000	      0.00000000
      3.13000000	      3.06605809	     -1.91186580	     -0.78927753	      0.89496968	      0.89286863	      1.40275822	     23.69145822	     -1.33666561	    -21.57997588	    -19.73844984	     -0.34450094	     -2.12743981	      3.72300762	     -1.10160178	     -9.81552453	     -1.56623652	     13.43552871	    -13.20776781	     -0.23051904	     14.91779974	     -4.58495363	     -6.21091411	    -10.46846947	      4.74973750	     -1.52686931	      5.71223103	     -8.52690443	     13.77178193	     12.03517324	     89.95437384	      0.00000000	      0.00000000	     18.24242368	     11.30887489	    -15.62208347	     31.73926100	     89.95437384	      0.00000000	      0.00000000
      3.14000000	      2.84382890	     -1.75903995	     -0.79267049	      0.90115317	      0.89180326	      1.40306060	     24.08940567	     -1.43274653	    -21.88752033	    -19.30628025	     -0.33695816	     -2.02412566	      3.69063835	     -1.12384023	     -9.96165364	     -1.69755216	     13.46369262	    -13.32728032	     -0.23260492	     14.99837063	     -4.56243548	     -6.20466800	    -10.33368726	      4.63297960	     -1.30971845	      5.51702793	     -8.52145240	     13.77461545	     11.83067897	     89.95437384	      0.00000000	      0.00000000	     18.19122636	     11.06490094	    -15.66176829	     31.92044058	     89.95437384	      0.00000000	      0.00000000
      3.15000000	      2.75097256	     -1.91402600	     -0.51980749	      0.90746753	      0.89108935	      1.40339397	     24.02434040	     -1.19083329	    -22.01901093	    -18.50323340	     -0.32294235	     -2.21635079	      4.36565872	     -1.37843933	    -10.20492935	     -1.40400957	     13.18886464	    -13.53352674	     -0.23620460	     15.25570305	     -4.72036717	     -6.31895259	    -10.30899180	      4.86308781	     -1.43562640	      5.50812025	     -8.39548107	     13.66978095	     11.35447490	     89.95437384	      0.00000000	      0.00000000	     18.08842527	     10.92331180	    -15.85674619	     32.03526524	     89.95437384	      0.00000000	      0.00000000
      3.16000000	      2.87867294	     -2.05258928	     -0.24334810	      0.91426106	      0.89071127	      1.40367525	     23.71787533	     -1.08507435	    -22.61342809	    -18.12197382	     -0.31628811	     -2.10665316	      5.20220849	     -2.04893111	    -10.69591444	     -1.09592311	     13.24405357	    -13.80869808	     -0.24100725	     15.24609364	     -4.95110121	     -6.50011547	    -10.50869042	      5.07279037	     -1.49544344	      5.37100331	     -8.33091562	     13.37340820	     11.12373524	     89.95437384	      0.00000000	      0.00000000	     17.91052118	     10.74652811	    -15.97251556	     32.25319523	     89.95437384	      0.00000000	      0.00000000
      3.17000000	      2.66790498	     -1.93308608	     -0.04688760	      0.92089711	      0.88980067	      1.40407272	     23.99748508	     -1.17889027	    -22.33154310	    -18.31355958	     -0.31963191	     -2.13749428	      5.07834438	     -2.03248982	    -10.74612117	     -1.09099553	     13.10786160	    -14.16574793	     -0.24723894	     15.02603776	     -4.84361245	     -6.41075009	    -10.35574954	      4.96064261	     -1.47475028	      5.00463343	     -8.32319967	     13.33915095	     11.27913472	     89.95437384	      0.00000000	      0.00000000	     17.68767742	     10.55197106	    -15.95341466	     32.44632589	     89.95437384	      0.00000000	      0.00000000
      3.18000000	      2.46920987	     -1.91816744	      0.16291680	      0.92809092	      0.88908351	      1.40432276	     23.97452233	     -1.13797752	    -22.19393963	    -18.29825582	     -0.31936481	     -2.07062946	      5.12274610	     -2.10147846	    -11.05562152	     -1.02861534	     13.04682990	    -14.10334576	     -0.24614982	     15.22493967	     -4.98258920	     -6.45402808	    -10.09916456	      5.02063732	     -1.58115596	      4.88895014	     -8.23078181	     13.41623656	     10.80641114	     89.95437384	      0.00000000	      0.00000000	     17.42443484	     10.30907796	    -16.10248646	     32.22064168	     89.95437384	      0.00000000	      0.00000000
      3.19000000	      2.26591261	     -1.81866659	      0.44593491	      0.93504600	      0.88830957	      1.40471195	     24.05083615	     -1.20411003	    -21.73203787	    -18.67140008	     -0.32587741	     -2.14777970	      5.00446643	     -2.08311782	    -11.09847717	     -0.96502391	     12.82768040	    -14.53684510	     -0.25371581	     14.95069037	     -4.88105152	     -6.35663836	     -9.93115169	      4.93858052	     -1.62498687	      4.50773452	     -8.23073291	     13.38356155	     10.99295818	     89.95437384	      0.00000000	      0.00000000	     17.09607692	     10.11775812	    -16.09328065	     32.37964344	     89.95437384	      0.00000000	      0.00000000
      3.20000000	      2.23332370	     -1.94011257	      0.87178951	      0.94255341	      0.88795116	      1.40492065	     23.70423861	     -1.03029240	    -21.25876285	    -18.93649586	     -0.33050420	     -2.18578825	      4.99467937	     -2.17380293	    -11.58809741	     -0.67703403	     12.49701892	    -14.45401065	     -0.25227008	     15.14488586	     -5.22337130	     -6.44800015	     -9.80602326	      5.15900307	     -1.99272894	      4.51977074	     -8.10624559	     13.47554995	     10.38889840	     89.95437384	      0.00000000	      0.00000000	     16.78958322	      9.95000014	    -16.31251847	     31.99791133	     89.95437384	      0.00000000	      0.00000000
      3.21000000	      2.64159764	     -2.09856580	      1.42111407	      0.95051706	      0.88830433	      1.40524123	     22.60833851	     -0.77664158	    -21.19235255	    -18.91810262	     -0.33018318	     -2.39134203	      4.46560263	     -2.37811263	    -12.55621774	     -0.24785303	     12.22321383	    -14.45261629	     -0.25224574	     14.60992827	     -5.95450061	     -6.63478117	    -10.15807043	      5.38283768	     -2.35801991	      4.35430321	     -8.03076719	     13.45346000	     10.26006372	     89.95437384	      0.00000000	      0.00000000	     16.43296932	      9.84919849	    -16.62433890	     31.88095684	     89.95437384	      0.00000000	      0.00000000
      3.22000000	      2.46885234	     -2.12569029	      1.72633419	      0.95815253	      0.88791871	      1.40565591	     22.47963409	     -0.74327282	    -21.06252581	    -19.26810342	     -0.33629185	     -3.37624910	      4.28382087	     -2.26976288	    -12.77474153	     -0.02702969	     12.15335928	    -14.64644966	     -0.25562877	     14.46881344	     -5.97941012	     -6.62758389	     -9.90240394	      5.46383245	     -2.51857141	      4.14205773	     -8.00920191	     13.48007052	     10.11298437	     89.95437384	      0.00000000	      0.00000000	     16.02759236	      9.61767033	    -16.69211425	     31.55436429	     89.95437384	      0.00000000	      0.00000000
